<svg width="26" height="53" viewBox="0 0 26 53" fill="none" xmlns="http://www.w3.org/2000/svg">
<path d="M24.9672 34.0433C24.6787 34.1454 24.3442 34.2578 23.9772 34.3703L23.0736 34.6162L22.6017 34.7256L22.1297 34.8212C21.5337 34.9382 20.9294 35.0068 20.3226 35.0262C19.8977 35.0426 19.4785 35.1304 19.0819 35.2859C18.693 35.4419 18.3258 35.6486 17.9896 35.9008C17.3816 36.3845 16.9154 37.0271 16.6411 37.7594C16.4781 38.1877 16.225 38.5748 15.8994 38.8937C16.2095 38.1831 16.4927 37.5271 16.749 36.7072C17.0052 35.8872 17.2884 35.0399 17.5041 34.1926C17.7199 33.3453 17.8143 32.826 17.9357 32.1973C18.0189 32.1039 18.1091 32.0171 18.2054 31.9377C18.3057 31.8539 18.4142 31.7807 18.529 31.719C18.7821 31.5866 19.0701 31.5387 19.3517 31.5824L19.7697 31.5004C20.0124 31.5004 20.3496 31.3637 20.6867 31.2544L21.2127 31.0767C21.3758 31.0174 21.5336 30.9442 21.6846 30.8581C21.9371 30.7562 22.1501 30.5739 22.2915 30.3387C22.3602 30.1663 22.446 30.0015 22.5477 29.8468L22.8174 29.3821C22.9326 29.2047 23.0319 29.0172 23.1141 28.8218C23.1141 28.7125 23.2085 28.6032 23.2625 28.4665C23.3164 28.3298 23.3568 28.2068 23.3973 28.0428C23.4462 27.8716 23.5141 27.7066 23.5996 27.5509C23.6905 27.3617 23.7942 27.179 23.9097 27.0042C24.0176 26.8129 24.1525 26.6216 24.2739 26.4302L24.6919 25.8563L24.8942 25.5829L25.0965 25.3096L25.4741 24.845C25.6348 24.6362 25.8106 24.4398 26 24.2573L25.528 24.6127L25.0156 24.9816L24.3683 25.4326C23.858 25.7564 23.3313 26.0529 22.7905 26.3209L22.3859 26.5122L21.9678 26.6899C21.7129 26.7971 21.4517 26.8884 21.1857 26.9632C20.9898 27.0158 20.8 27.089 20.6193 27.1819C20.4453 27.2736 20.2785 27.3787 20.1203 27.4962C19.8145 27.7355 19.5422 28.0159 19.3112 28.3298C18.8676 28.9352 18.5844 29.6456 18.4886 30.3934C18.4521 30.7166 18.3608 31.031 18.2189 31.3227C18.1641 31.441 18.101 31.5552 18.0301 31.6644C18.3229 29.9316 18.4493 28.1741 18.4077 26.4166V26.1023V25.7743V25.4599V25.132C18.4017 25.0273 18.4017 24.9223 18.4077 24.8176V24.7083V24.64C18.5079 24.4218 18.6448 24.223 18.8122 24.0523C19.0097 23.8684 19.2602 23.7534 19.527 23.7244H19.6349L19.8911 23.5877L20.6732 23.1367C20.9547 22.9493 21.2208 22.739 21.4689 22.5081C21.659 22.3409 21.7991 22.1231 21.8734 21.8794C21.9201 21.5249 21.9876 21.1735 22.0757 20.8271V20.5402V20.2258C22.0824 20.1029 22.0824 19.9797 22.0757 19.8568V19.4332C22.0559 19.2652 22.0559 19.0955 22.0757 18.9276V18.6406V18.3536C22.0757 18.2579 22.3724 17.9026 22.3724 17.6293L22.4668 17.3286C22.4668 17.2193 22.4668 17.1236 22.5612 17.0143L22.7635 16.4403C22.8444 16.2627 22.8983 16.085 22.9658 15.9347C23.0512 15.7056 23.1503 15.482 23.2625 15.265C23.2625 15.265 23.1546 15.4427 22.9523 15.716L22.5882 16.1807L22.1162 16.7546C21.7707 17.155 21.4061 17.5381 21.0239 17.9026C20.6053 18.272 20.1538 18.6014 19.6753 18.8866C19.5157 18.9845 19.3666 19.099 19.2303 19.2282C19.0986 19.3561 18.981 19.4981 18.8797 19.6519C18.6693 19.9509 18.5098 20.2835 18.4077 20.6358C18.353 20.8052 18.3124 20.9789 18.2863 21.1551C18.2666 21.3322 18.2666 21.511 18.2863 21.6881C18.2796 21.7791 18.2796 21.8704 18.2863 21.9614C18.2934 22.0478 18.2934 22.1347 18.2863 22.2211C18.2732 22.3894 18.2732 22.5584 18.2863 22.7267C18.2929 22.8086 18.2929 22.8909 18.2863 22.9727C18.2928 23.05 18.2928 23.1277 18.2863 23.205V23.6424C18.2583 23.79 18.2223 23.936 18.1784 24.0797V23.738C18.0705 22.8907 17.9222 22.0571 17.7469 21.2508C17.5716 20.4445 17.3423 19.6655 17.0861 18.9002C17.0861 18.7089 16.9647 18.5176 16.8973 18.3399L16.695 17.7796L16.4792 17.2466C16.4732 17.1967 16.4732 17.1462 16.4792 17.0963C16.5032 16.8705 16.572 16.6521 16.6815 16.454C16.809 16.2342 17.0029 16.0617 17.2344 15.962L17.5041 15.716C17.666 15.552 17.8817 15.3334 18.084 15.0874C18.289 14.8434 18.4739 14.5829 18.6369 14.3084C18.7655 14.1047 18.8312 13.8668 18.8257 13.6251V13.3654V13.1195V12.6001C18.8257 12.4088 18.8257 12.2175 18.7313 11.9988C18.6369 11.7802 18.7313 11.7802 18.6504 11.6572C18.5695 11.5342 18.6504 11.4112 18.5425 11.2745C18.3785 10.5998 18.3059 9.90555 18.3268 9.21095V8.18599C18.3348 8.03117 18.3532 7.87716 18.3819 7.72503C18.3565 7.79986 18.3147 7.89567 18.2459 8.00834C18.0705 8.29533 17.9627 8.69164 17.7469 9.12896C17.639 9.34762 17.5311 9.56627 17.3963 9.79859C17.2744 10.034 17.1393 10.2622 16.9917 10.4819C16.8568 10.7006 16.7085 10.9192 16.5602 11.1242C16.4129 11.3194 16.2553 11.5065 16.0882 11.6845C15.8554 11.9392 15.6805 12.2424 15.5757 12.5728C15.527 12.7337 15.4909 12.8982 15.4678 13.0648V13.5841V14.0897C15.4628 14.1762 15.4628 14.2629 15.4678 14.3494V14.5954C15.5574 14.9147 15.6842 15.2221 15.8454 15.511C15.8454 15.6477 15.9668 15.798 16.0207 15.9347C16.0747 16.0713 16.0207 16.0713 16.0207 16.1397V16.2763C16.0692 16.3588 16.1099 16.4457 16.1421 16.536L16.0207 16.8366C16.0334 16.6729 16.0334 16.5084 16.0207 16.3447V16.2763L15.7915 15.757C15.7106 15.593 15.6162 15.429 15.5488 15.2787C15.4813 15.1284 15.4678 15.1147 15.4139 15.0327L15.2925 14.7867L15.1577 14.5544V14.4314C15.1536 14.3951 15.1536 14.3584 15.1577 14.3221L14.888 13.8711C14.807 13.7071 14.7127 13.5704 14.6317 13.4201L14.4969 13.2015C14.4969 13.1331 14.4025 13.0648 14.362 12.9828C13.8796 12.3056 13.3476 11.6661 12.7707 11.0695C12.7049 10.9027 12.6596 10.7283 12.6359 10.5502C12.5962 10.3426 12.5962 10.1292 12.6359 9.92159C12.7035 9.69339 12.8404 9.49256 13.027 9.34761C13.0954 9.25106 13.1584 9.15068 13.2158 9.04695C13.3236 8.86929 13.472 8.62331 13.6068 8.34999C13.8863 7.91758 14.0145 7.4027 13.9709 6.88772C13.7408 6.1871 13.466 5.50236 13.1483 4.8378C13.0188 4.5769 12.9192 4.30176 12.8517 4.01783C12.7693 3.7032 12.7063 3.38372 12.6629 3.0612C12.6018 2.60777 12.6018 2.14803 12.6629 1.69459L12.555 2.13191C12.4741 2.39156 12.3662 2.76056 12.2313 3.1842C11.916 4.0334 11.509 4.84463 11.0176 5.6031C10.8417 5.86783 10.735 6.17347 10.7075 6.4914C10.6823 6.80535 10.719 7.12123 10.8154 7.42069C11.0154 8.03437 11.3417 8.598 11.7728 9.07429C11.8711 9.18595 11.9612 9.30471 12.0425 9.42961C12.1116 9.54234 12.1703 9.66128 12.2178 9.78492C12.3141 9.99228 12.3778 10.2136 12.4066 10.4409V10.6186L11.9212 10.0309C11.7593 9.82592 10.1276 7.981 8.95436 6.65539C8.72209 6.26776 8.59636 5.82423 8.59025 5.37078C8.66768 4.64828 8.50204 3.92046 8.1202 3.3053C7.73836 2.69013 7.16269 2.22369 6.48652 1.98158C4.86207 1.50252 3.29667 0.837718 1.82054 0C2.77657 0.757285 3.53192 1.74346 4.01867 2.86988C4.34232 3.89484 4.69295 4.40048 4.93568 5.05645C5.17842 5.71243 7.63278 6.42306 7.63278 6.42306C8.01451 6.42181 8.38536 6.55191 8.68464 6.79205C9.11618 7.43436 10.3838 9.33394 10.7344 9.74393L11.3683 10.5366L11.9616 11.3019L11.7324 11.2199L11.4761 11.0695L11.1929 10.8919L10.9097 10.6596C10.8288 10.5639 10.7344 10.4682 10.6535 10.3589L10.5322 10.1949C10.4861 10.1414 10.4366 10.0912 10.3838 10.0446C10.2871 9.93749 10.1835 9.83705 10.0736 9.74393L9.70954 9.47061C9.58647 9.38886 9.45542 9.32017 9.31846 9.26562C9.0483 9.1375 8.75367 9.07109 8.45539 9.07109C8.15712 9.07109 7.86248 9.1375 7.59232 9.26562C6.77215 9.60563 5.9237 9.87089 5.05705 10.0583L4.03216 10.2906L3.62759 10.3726C4.07997 10.3412 4.53443 10.3781 4.97614 10.4819C5.25811 10.5357 5.53718 10.6041 5.81224 10.6869C6.04947 10.7617 6.27612 10.8673 6.48652 11.0012C6.77827 11.1824 7.07993 11.3466 7.39004 11.4932C7.65975 11.6298 7.889 11.7255 8.11826 11.8622C8.30331 11.9161 8.4996 11.9161 8.68464 11.8622C8.94087 11.8622 9.22406 11.7802 9.49377 11.7255C10.0467 11.5889 10.5456 11.4385 10.5456 11.4385C10.7289 11.3134 10.945 11.2467 11.166 11.2472C11.366 11.2554 11.5628 11.3017 11.7459 11.3839C11.8922 11.453 12.0321 11.5353 12.1639 11.6299L12.3392 11.7665C12.7303 12.2858 13.1079 12.8461 13.4855 13.4474L13.6068 13.6524C13.6596 13.7201 13.7048 13.7934 13.7417 13.8711C13.8226 14.0078 13.917 14.1444 13.9979 14.2947C14.0788 14.4451 14.1598 14.5954 14.2542 14.7457V14.855C14.2607 14.8912 14.2607 14.9282 14.2542 14.9644L14.3755 15.1967L14.4969 15.429C14.5453 15.5019 14.586 15.5798 14.6183 15.6614L14.861 16.1397L15.0902 16.6316C15.1318 16.711 15.1678 16.7932 15.1981 16.8776L15.3195 17.1236C15.3472 17.2135 15.3833 17.3004 15.4274 17.3833C15.4307 17.3932 15.4342 17.403 15.4377 17.4129L15.5622 17.4926C15.693 17.6008 15.8148 17.7196 15.9263 17.8479L16.1286 18.3809L16.3039 18.9276C16.5467 19.6655 16.7624 20.4172 16.9378 21.1961C17.1131 21.9751 17.2479 22.7814 17.3558 23.6014L17.4367 24.2163V24.3393C17.3123 24.1581 17.204 23.966 17.1131 23.7654L17.0322 23.574V23.3827C16.9865 23.2451 16.9548 23.1032 16.9378 22.959C16.9193 22.8062 16.8877 22.6553 16.8434 22.5081C16.802 22.3506 16.7525 22.1955 16.695 22.0434C16.6267 21.8934 16.5502 21.7474 16.4658 21.6061C16.3836 21.4654 16.2888 21.3328 16.1826 21.2098C16.0804 21.086 15.9676 20.9717 15.8454 20.8681L15.6432 20.7315L15.4274 20.6221C15.1176 20.4681 14.774 20.3975 14.4295 20.4172H13.7012H12.9191H12.1504H11.4222L9.81743 20.2942C9.99744 20.3186 10.174 20.3644 10.3434 20.4308C10.596 20.5271 10.8436 20.6366 11.0851 20.7588L11.4627 20.9775L11.8133 21.2235L12.11 21.4831C12.1608 21.518 12.2024 21.5649 12.2313 21.6198H12.2988C12.3968 21.7848 12.5097 21.9403 12.6359 22.0844C12.7281 22.2128 12.8271 22.336 12.9326 22.4534C13.1159 22.6665 13.287 22.8901 13.445 23.123C13.4936 23.198 13.5644 23.2555 13.6473 23.287L13.9844 23.451C14.2541 23.5467 14.5778 23.6287 14.888 23.7107L15.7241 23.902L16.0882 23.9703C16.3432 23.9435 16.6005 23.9909 16.8299 24.107C17.0261 24.2195 17.1962 24.3733 17.3288 24.558L17.5041 24.8313C17.4969 24.936 17.4969 25.041 17.5041 25.1456C17.4974 25.2503 17.4974 25.3553 17.5041 25.4599V25.7743C17.5112 25.8789 17.5112 25.9839 17.5041 26.0886C17.5452 27.7872 17.4187 29.4856 17.1266 31.1587C17.133 31.2816 17.133 31.4048 17.1266 31.5277V31.3774C17.0841 31.249 17.0569 31.116 17.0456 30.9811V30.7761V30.3387V30.0928C17.0595 29.9291 17.0595 29.7645 17.0456 29.6008V29.0815C17.024 28.9101 16.9879 28.7409 16.9378 28.5758C16.8996 28.4051 16.8407 28.2399 16.7624 28.0838C16.6953 27.9279 16.6092 27.7809 16.5062 27.6465C16.4071 27.5074 16.2891 27.3831 16.1556 27.2775C15.8817 27.0384 15.5522 26.8738 15.1981 26.7992C14.6744 26.6848 14.1568 26.5434 13.6473 26.3756L12.8651 26.1159L12.1369 25.8836L11.5031 25.6786L11.2199 25.5829L10.9907 25.5009L10.534 25.3555C10.6077 25.3795 10.6793 25.4098 10.7479 25.4463L10.8828 25.5283C10.9269 25.568 10.9769 25.6003 11.0311 25.6239L11.3548 25.8563L11.5166 25.9793L11.6919 26.1296L11.8537 26.2799L12.0156 26.4439C12.1234 26.5532 12.2178 26.6762 12.3122 26.7856C12.3947 26.8952 12.4712 27.0092 12.5415 27.1272C12.5415 27.1272 12.6089 27.2502 12.6359 27.3049C12.6395 27.3549 12.6395 27.4052 12.6359 27.4552C12.6359 27.5645 12.7033 27.6602 12.7438 27.7559C12.7842 27.8515 12.7438 27.9335 12.8517 28.0155C12.9595 28.0975 12.8517 28.1795 12.9461 28.2615L12.9326 28.8355L13.0405 29.0541L13.1214 29.2591L13.2832 29.6691C13.3824 29.8736 13.5429 30.041 13.7417 30.1474C14.0078 30.3405 14.2872 30.514 14.5778 30.6667L15.3734 31.0904L15.7376 31.268C16.0073 31.2958 16.2596 31.4164 16.4523 31.6097C16.6233 31.7716 16.7529 31.9733 16.8299 32.1973C16.834 32.2565 16.834 32.3158 16.8299 32.375C16.722 32.9216 16.6006 33.482 16.4658 34.0286C16.25 34.8622 15.9938 35.6822 15.7241 36.4748C15.4544 37.2675 15.1307 38.0874 14.8071 38.8527V38.4291C14.7894 38.2793 14.7894 38.1279 14.8071 37.9781C14.8461 37.8155 14.8956 37.6557 14.9554 37.4998C15.2326 36.8168 15.3166 36.0692 15.1981 35.3405C15.1612 35.164 15.1116 34.9905 15.0498 34.8212C14.973 34.6589 14.8828 34.5035 14.7801 34.3566C14.5604 34.0423 14.2626 33.7925 13.917 33.6323C13.4088 33.3753 12.9137 33.0925 12.4336 32.785L11.0851 31.8694L9.58817 30.8854C9.75242 31.0036 9.89793 31.1464 10.0197 31.309L10.2894 31.637L10.5591 32.0333L10.8019 32.4707C10.8777 32.6123 10.9453 32.7583 11.0041 32.908C11.0635 33.0501 11.1131 33.1962 11.1525 33.3453C11.1928 33.4689 11.2156 33.5978 11.2199 33.7279V34.0833V34.3839C11.2199 34.5889 11.2199 34.7666 11.3008 34.9306C11.3656 35.2462 11.4106 35.5658 11.4357 35.8872C11.4935 36.1175 11.6152 36.3261 11.7863 36.4885L12.1369 36.8575L12.528 37.2265L13.2697 37.8414L13.499 38.0328H13.5934C13.8624 38.1305 14.0938 38.3124 14.2542 38.5521C14.3215 38.6589 14.3758 38.7736 14.416 38.8937C14.4557 39.0088 14.4828 39.128 14.4969 39.2491C14.2407 39.8367 13.9575 40.4243 13.6608 40.9846C12.9335 42.3659 12.0992 43.6865 11.166 44.9341L11.0716 45.0571C11.0875 44.9498 11.1146 44.8444 11.1525 44.7428C11.2065 44.5933 11.2696 44.4472 11.3413 44.3055C11.421 44.1448 11.5111 43.9896 11.611 43.8409C12.0649 43.21 12.3315 42.4608 12.3797 41.6816C12.3888 41.3024 12.3199 40.9254 12.1774 40.5747C12.0154 40.204 11.7595 39.8833 11.4357 39.6454C11.2199 39.4677 10.9907 39.29 10.7749 39.0851C10.5591 38.8801 10.3299 38.6751 10.1006 38.4701L9.45332 37.8278C9.23755 37.6273 9.03527 37.4223 8.84647 37.2128L7.49793 35.8462L7.65975 36.0512L7.84855 36.3792C7.84855 36.5022 7.9834 36.6388 8.03734 36.7891C8.11074 36.9394 8.17382 37.0947 8.22614 37.2538C8.22614 37.4041 8.33403 37.5818 8.38797 37.7458C8.44191 37.9098 8.46888 38.0874 8.49585 38.2514V38.4837C8.50236 38.561 8.50236 38.6388 8.49585 38.7161C8.51619 38.852 8.51619 38.9902 8.49585 39.126C8.49 39.2444 8.49 39.363 8.49585 39.4814V39.8094C8.48914 39.9049 8.48914 40.0008 8.49585 40.0963C8.48946 40.1873 8.48946 40.2787 8.49585 40.3697C8.48913 40.4561 8.48913 40.5429 8.49585 40.6293V40.8753V41.1213V41.3673C8.4666 41.4653 8.4666 41.5699 8.49585 41.6679C8.53689 41.803 8.59587 41.9317 8.67116 42.0506C8.75207 42.2009 8.84647 42.3512 8.94087 42.5016L9.26452 42.9662L9.85788 43.7589C10.0197 43.9775 10.1276 44.1005 10.1276 44.1005C10.3838 44.2634 10.5785 44.5089 10.6805 44.7975C10.7537 45.0266 10.7812 45.2681 10.7614 45.5081C10.0503 46.3945 9.27502 47.2259 8.44191 47.9953C7.64686 48.7206 6.78425 49.3659 5.86618 49.9223L5.98755 49.7719C6.21493 49.5049 6.47298 49.2663 6.75622 49.0613C7.07723 48.8313 7.36343 48.555 7.60581 48.2413C7.8514 47.9252 8.04286 47.5695 8.1722 47.1891C8.1784 47.0935 8.1784 46.9976 8.1722 46.9021C8.1786 46.8065 8.1786 46.7106 8.1722 46.6151C8.17896 46.515 8.17896 46.4145 8.1722 46.3144C8.17886 46.2189 8.17886 46.123 8.1722 46.0274C8.14487 45.8277 8.08566 45.6339 7.99689 45.4535C7.9125 45.255 7.79882 45.0707 7.65975 44.9068C7.48444 44.6745 7.30913 44.4422 7.13382 44.1825C6.95851 43.9229 6.76971 43.6632 6.5944 43.3899L6.08195 42.6109C5.92012 42.3513 5.74481 42.1053 5.59647 41.8729C5.44813 41.6406 5.29979 41.4083 5.16494 41.217L4.8278 40.6977L4.51763 40.233C4.63031 40.4203 4.71656 40.6227 4.77386 40.8343C4.77386 40.9573 4.85477 41.1076 4.89523 41.2716V41.381C4.90154 41.4217 4.90154 41.4632 4.89523 41.5039V41.7499C4.90839 41.9228 4.90839 42.0964 4.89523 42.2693C4.90849 42.433 4.90849 42.5975 4.89523 42.7612C4.90915 42.9158 4.90915 43.0713 4.89523 43.2259V43.4309V43.5949L4.8278 43.7589V43.9092C4.8278 43.9638 4.8278 44.1005 4.7334 44.1962C4.639 44.2918 4.62552 44.5378 4.58506 44.7018C4.59103 44.7791 4.59103 44.8568 4.58506 44.9341V45.1528V45.2485C4.56997 45.321 4.54259 45.3904 4.50415 45.4535C4.49783 45.4942 4.49783 45.5357 4.50415 45.5765V45.7404C4.52168 45.8879 4.54871 46.0339 4.58506 46.1778C4.65249 46.4921 4.77386 46.8611 4.88174 47.23C4.98962 47.599 5.11099 47.9544 5.19191 48.214L5.32676 48.6513C5.51037 48.899 5.60547 49.2026 5.59647 49.5123C5.60393 49.5804 5.60393 49.6492 5.59647 49.7173C5.60258 49.7855 5.60258 49.8541 5.59647 49.9223C5.58006 49.9881 5.55748 50.0521 5.52904 50.1136C5.20539 50.2776 4.89523 50.4279 4.59855 50.5509L4.30186 50.6739L4.01867 50.7696L3.73548 50.8652L3.46577 50.9472C2.9356 51.0904 2.48867 51.2108 1.84751 51.2342C1.67909 51.2404 1.58448 51.2369 1.41597 51.2342C0.861841 51.2255 0 51.1386 0 51.1386C0 51.1386 1.29954 52.1404 1.91494 52.0952C2.53034 52.0499 3.14001 51.9447 3.73548 51.7809L4.03216 51.6852L4.32884 51.5895L4.65249 51.4802L4.97614 51.3435C5.33127 51.1947 5.67793 51.0259 6.01452 50.8379C6.25763 50.8603 6.49743 50.9107 6.72925 50.9882C7.03526 51.0937 7.29368 51.3071 7.45747 51.5895L7.84855 51.8629C8.15032 52.0792 8.46565 52.2755 8.79253 52.4505L9.37241 52.7238C9.56131 52.8043 9.75498 52.8727 9.95228 52.9288C10.2692 53.0237 10.6064 53.0237 10.9232 52.9288L11.2739 52.8058L11.584 52.7238L12.1909 52.6008L12.528 52.5188H12.7033H12.8921L13.3102 52.3412L13.7956 52.0815C13.9934 51.967 14.201 51.8709 14.416 51.7945L15.1846 51.5759L16.0477 51.3982L16.9378 51.2616C18.111 51.0839 19.2168 50.9609 19.6349 50.9336H19.4461H18.9336H18.1649L17.221 50.7969C16.5203 50.6896 15.8267 50.539 15.1442 50.3459C14.496 50.1815 13.8641 49.9573 13.2562 49.6763C12.8284 49.4777 12.374 49.3442 11.9077 49.28C11.6651 49.2664 11.422 49.2664 11.1795 49.28H10.8288L10.2355 49.3346H10.0602H9.88485H9.53424L9.21058 49.4166L8.88693 49.5123L8.57676 49.6353L8.28008 49.7719C8.09278 49.8681 7.91251 49.9777 7.74067 50.0999L7.48444 50.2639L7.22822 50.4006C7.06111 50.4741 6.89002 50.538 6.71577 50.5919H6.5944H6.48652C7.45293 50.0152 8.35692 49.3373 9.18361 48.5693C10.0841 47.7254 10.9182 46.8115 11.6784 45.8361C11.7731 45.792 11.8727 45.7599 11.9751 45.7404C12.1183 45.7204 12.2635 45.7204 12.4066 45.7404C12.7202 45.7335 13.0277 45.8294 13.2832 46.0138H13.4046L13.7282 46.1094C14.066 46.1961 14.4081 46.2645 14.7531 46.3144C15.1447 46.3854 15.5421 46.4174 15.9398 46.4101H16.1961C16.4084 46.3969 16.6133 46.3261 16.7894 46.2051L17.0456 46.0274L17.3019 45.8634L17.5446 45.7268L17.7873 45.6038C18.2424 45.3506 18.6563 45.028 19.0145 44.6472C19.3361 44.3484 19.6997 44.0997 20.0934 43.9092L20.7946 43.5675L21.5363 43.2532L22.2645 42.9799L22.9253 42.7339C23.2073 42.6254 23.4956 42.5341 23.7884 42.4606H23.6131H23.1411L22.4263 42.5562H21.5498H20.5519H19.527H19.028C18.8619 42.5698 18.6951 42.5698 18.529 42.5562C18.2189 42.5562 17.9087 42.5562 17.6255 42.4332C17.4057 42.4131 17.1845 42.4131 16.9647 42.4332C16.7402 42.4192 16.515 42.4192 16.2905 42.4332C15.8265 42.4938 15.3729 42.6179 14.9419 42.8022C14.1654 43.1104 13.4917 43.6366 13 44.3192C12.894 44.4779 12.7768 44.6286 12.6494 44.7702L12.2583 45.1118L12.0425 45.2485C13.0001 43.9512 13.8567 42.5804 14.6048 41.1486C14.9419 40.5063 15.2521 39.8504 15.5488 39.1807C15.7585 39.0336 15.9909 38.9228 16.2365 38.8527C16.3745 38.8251 16.5165 38.8251 16.6546 38.8527C16.8072 38.8588 16.9577 38.8912 17.0996 38.9484C17.5847 38.9765 18.0709 38.9765 18.556 38.9484C18.9328 38.9235 19.307 38.8687 19.6753 38.7844C19.9514 38.7366 20.2059 38.6028 20.4035 38.4017L20.6058 38.1694C20.6618 38.099 20.7251 38.0349 20.7946 37.9781L21.1992 37.6091C21.3528 37.4639 21.4969 37.3087 21.6307 37.1445C21.8089 36.9243 21.9711 36.6914 22.1162 36.4475C22.2148 36.2913 22.3276 36.1449 22.4533 36.0102C22.6017 35.8599 22.75 35.7095 22.9253 35.5592L23.2085 35.3269L23.4917 35.0946L24.0851 34.6572L24.6784 34.2336L24.9672 34.0433Z" fill="#B6B6B6"/>
<path d="M15.1094 17.3286L14.9689 17.1783C14.8895 17.0838 14.8173 16.9833 14.7531 16.8776C14.6729 16.7672 14.605 16.648 14.5508 16.5223C14.4942 16.3848 14.4265 16.2523 14.3486 16.126C14.2676 16.003 14.1867 15.8663 14.0923 15.7433L13.7822 15.4017L13.6743 15.1694C13.617 15.1162 13.5536 15.0703 13.4855 15.0327C13.2346 14.856 12.9496 14.7349 12.6494 14.6774C12.3352 14.5964 12.0061 14.5964 11.6919 14.6774C11.248 14.8018 10.7978 14.9022 10.3434 14.978L8.99481 15.1967L8.40145 15.2787H7.91597H7.62863C8.03667 15.2855 8.44203 15.3498 8.83299 15.47L9.03527 15.5384H9.23755L9.62863 15.6887C9.85042 15.7894 10.0588 15.9179 10.249 16.0713C10.3854 16.1945 10.5295 16.3087 10.6805 16.413L10.8693 16.5633L11.0446 16.6863C11.2707 16.8359 11.4869 17.0003 11.6919 17.1783C11.8682 17.2808 12.0686 17.3328 12.2718 17.3286H13.1349H14.2946C14.5228 17.2553 14.7677 17.2553 14.9958 17.3286H15.1094Z" fill="#B6B6B6"/>
</svg>
